Coordinates
version=1
nRows=6
nColumns=36
inDegrees=yes

Units are S.I. units (second, meters, Newtons, ...)
If the header above contains a line with 'inDegrees', this indicates whether rotational values are in degrees (yes) or radians (no).

endheader
time	pelvis_tilt	pelvis_list	pelvis_rotation	pelvis_tx	pelvis_ty	pelvis_tz	hip_flexion_r	hip_adduction_r	hip_rotation_r	knee_angle_r	knee_angle_r_beta	ankle_angle_r	subtalar_angle_r	mtp_angle_r	hip_flexion_l	hip_adduction_l	hip_rotation_l	knee_angle_l	knee_angle_l_beta	ankle_angle_l	subtalar_angle_l	mtp_angle_l	lumbar_extension	lumbar_bending	lumbar_rotation	arm_flex_r	arm_add_r	arm_rot_r	elbow_flex_r	pro_sup_r	arm_flex_l	arm_add_l	arm_rot_l	elbow_flex_l	pro_sup_l
      0.00000000	     -0.38418757	     -2.80557768	      3.62965617	     -0.97463056	      1.25337078	     -0.09186335	      4.94152748	      0.78572686	      1.45650089	     12.89443159	      0.22505029	     -0.59362950	    -21.44193788	     -5.88871987	      4.54058640	     -3.23346187	      4.85268989	     11.52635771	      0.20117289	      7.00161713	     -9.55909861	     -5.88871987	    -13.99990400	      5.15738357	      1.50270275	     10.45936714	     -7.90154120	     30.43855671	     23.14265069	     69.29049623	      5.64288423	     -3.31557415	     31.65696106	     18.62576173	     58.40716865
      0.00416670	      0.21228694	     -2.01952768	      3.64798283	     -0.97535145	      1.25814987	     -0.09171715	      4.38030105	      0.38816142	      2.05290650	     12.91943125	      0.22548661	      0.67555275	    -22.10417859	     -6.06106081	      3.81404759	     -1.92101277	      7.91976994	     11.37708382	      0.19856757	      5.30108431	    -12.16122654	     -6.06106081	    -15.13630786	      4.43202174	      1.42285428	     11.53172621	     -8.37854052	     34.95128968	     22.54758685	     71.74560495	      6.21702544	     -3.91273450	     36.11452434	     18.77165092	     60.01861223
      0.00833330	      0.23739861	     -1.31255903	      3.30670085	     -0.97570743	      1.25840412	     -0.09099557	      4.05289060	     -0.34535003	      1.55011765	     12.16209438	      0.21226859	      0.33796349	    -22.74298563	     -6.28482436	      3.59046951	     -1.11827536	      8.89826588	     11.12088233	      0.19409601	      4.63431508	    -13.35388479	     -6.28482436	    -15.69959246	      3.36307898	      1.70837239	     11.96485049	     -8.40494243	     37.95883357	     22.41232560	     72.97274003	      6.96360604	     -4.51747466	     39.79854294	     18.74033719	     61.39183357
      0.01250000	      1.27514357	     -1.01488527	      3.18489575	     -0.97656408	      1.26034858	     -0.09082533	      2.90522101	     -0.68934978	      1.61486087	     11.93088046	      0.20823315	      0.01062893	    -23.29888299	     -6.47180989	      2.19399472	     -0.79308472	      9.76356332	     10.47778867	      0.18287191	      3.92787347	    -14.75166394	     -6.47180989	    -17.54173951	      2.90871955	      1.92663493	     12.63852053	     -8.54903943	     40.25116867	     22.30589602	     74.23607748	      7.94054955	     -4.76573808	     43.06476542	     18.31814511	     62.43155764
      0.01666670	      1.96655478	     -0.83366551	      3.09876445	     -0.97702797	      1.26142383	     -0.09066559	      2.10027086	     -0.88698117	      1.63530265	     11.76838285	      0.20539703	     -0.30690429	    -23.72218675	     -6.68218704	      1.21206656	     -0.60964593	     10.39065717	      9.97124201	      0.17403100	      3.56714125	    -15.66252102	     -6.68218704	    -18.77380903	      2.74098570	      2.01904373	     13.02946036	     -8.55217413	     40.79886241	     22.39336232	     73.16658919	      8.41842407	     -4.69123288	     43.84420795	     17.99729365	     62.47361572
      0.02083330	      2.50856966	     -0.73640682	      3.06823061	     -0.97780558	      1.25860552	     -0.09067037	      1.57935047	     -0.94553569	      1.91665144	     11.83837118	      0.20661856	     -0.77343631	    -24.60727791	     -6.70626377	      0.62837344	     -0.47676931	     10.83192151	      9.79316839	      0.17092303	      2.84088983	    -17.67438482	     -6.70626377	    -19.73770394	      2.57918896	      2.12106816	     13.52778394	     -8.74358641	     42.46603710	     22.52094972	     74.90630522	      8.99068048	     -4.86904478	     46.36730262	     17.95866589	     63.67416569
